<mxfile host="" modified="2021-01-29T22:41:45.852Z" agent="5.0 (Windows NT 6.2; Win64; x64) AppleWebKit/537.36 (KHTML, like Gecko) Chrome/84.0.4147.105 Safari/537.36" etag="OPN2vrUPuwL6Q3-A-yBj" version="13.7.9" type="embed"><diagram id="R2lEEEUBdFMjLlhIrx00" name="Page-1"><mxGraphModel dx="723" dy="742" grid="1" gridSize="10" guides="1" tooltips="1" connect="1" arrows="1" fold="1" page="1" pageScale="1" pageWidth="850" pageHeight="1100" math="0" shadow="0" extFonts="Permanent Marker^https://fonts.googleapis.com/css?family=Permanent+Marker"><root><mxCell id="0"/><mxCell id="1" parent="0"/><mxCell id="30" value="Survey" style="whiteSpace=wrap;html=1;align=center;" vertex="1" parent="1"><mxGeometry x="375" y="140" width="100" height="40" as="geometry"/></mxCell><mxCell id="31" value="Id" style="ellipse;whiteSpace=wrap;html=1;align=center;fontStyle=4;" vertex="1" parent="1"><mxGeometry x="250" y="80" width="100" height="40" as="geometry"/></mxCell><mxCell id="32" value="StartLogic" style="ellipse;whiteSpace=wrap;html=1;align=center;" vertex="1" parent="1"><mxGeometry x="375" y="40" width="100" height="40" as="geometry"/></mxCell><mxCell id="33" value="AdaptionLogic" style="ellipse;whiteSpace=wrap;html=1;align=center;" vertex="1" parent="1"><mxGeometry x="490" y="80" width="100" height="40" as="geometry"/></mxCell><mxCell id="34" value="StopLogic" style="ellipse;whiteSpace=wrap;html=1;align=center;" vertex="1" parent="1"><mxGeometry x="570" y="140" width="100" height="40" as="geometry"/></mxCell><mxCell id="35" value="SurveyItem" style="whiteSpace=wrap;html=1;align=center;" vertex="1" parent="1"><mxGeometry x="375" y="310" width="100" height="40" as="geometry"/></mxCell><mxCell id="36" value="Id" style="ellipse;whiteSpace=wrap;html=1;align=center;fontStyle=4;" vertex="1" parent="1"><mxGeometry x="250" y="240" width="100" height="40" as="geometry"/></mxCell><mxCell id="37" value="Answer" style="whiteSpace=wrap;html=1;align=center;" vertex="1" parent="1"><mxGeometry x="250" y="450" width="100" height="40" as="geometry"/></mxCell><mxCell id="38" value="Question" style="whiteSpace=wrap;html=1;align=center;" vertex="1" parent="1"><mxGeometry x="480" y="450" width="100" height="40" as="geometry"/></mxCell><mxCell id="39" value="Id" style="ellipse;whiteSpace=wrap;html=1;align=center;fontStyle=4;" vertex="1" parent="1"><mxGeometry x="110" y="380" width="100" height="40" as="geometry"/></mxCell><mxCell id="40" value="Id" style="ellipse;whiteSpace=wrap;html=1;align=center;fontStyle=4;" vertex="1" parent="1"><mxGeometry x="600" y="380" width="100" height="40" as="geometry"/></mxCell><mxCell id="44" style="edgeStyle=orthogonalEdgeStyle;rounded=0;orthogonalLoop=1;jettySize=auto;html=1;exitX=1;exitY=0.5;exitDx=0;exitDy=0;entryX=0.25;entryY=1;entryDx=0;entryDy=0;endArrow=none;endFill=0;" edge="1" parent="1" source="41" target="37"><mxGeometry relative="1" as="geometry"/></mxCell><mxCell id="41" value="Content" style="ellipse;whiteSpace=wrap;html=1;align=center;" vertex="1" parent="1"><mxGeometry x="110" y="500" width="100" height="40" as="geometry"/></mxCell><mxCell id="45" style="edgeStyle=orthogonalEdgeStyle;rounded=0;orthogonalLoop=1;jettySize=auto;html=1;exitX=0;exitY=0.5;exitDx=0;exitDy=0;entryX=0.5;entryY=1;entryDx=0;entryDy=0;endArrow=none;endFill=0;" edge="1" parent="1" source="42" target="38"><mxGeometry relative="1" as="geometry"/></mxCell><mxCell id="42" value="Content" style="ellipse;whiteSpace=wrap;html=1;align=center;" vertex="1" parent="1"><mxGeometry x="590" y="500" width="100" height="40" as="geometry"/></mxCell><mxCell id="46" value="" style="endArrow=none;html=1;rounded=0;exitX=1;exitY=1;exitDx=0;exitDy=0;entryX=0;entryY=0.25;entryDx=0;entryDy=0;" edge="1" parent="1" source="39" target="37"><mxGeometry relative="1" as="geometry"><mxPoint x="370" y="380" as="sourcePoint"/><mxPoint x="530" y="380" as="targetPoint"/><Array as="points"><mxPoint x="195" y="460"/></Array></mxGeometry></mxCell><mxCell id="47" value="" style="endArrow=none;html=1;rounded=0;entryX=0;entryY=1;entryDx=0;entryDy=0;exitX=1;exitY=0.25;exitDx=0;exitDy=0;" edge="1" parent="1" source="38" target="40"><mxGeometry relative="1" as="geometry"><mxPoint x="370" y="380" as="sourcePoint"/><mxPoint x="530" y="380" as="targetPoint"/><Array as="points"><mxPoint x="615" y="460"/></Array></mxGeometry></mxCell><mxCell id="48" value="has" style="endArrow=none;html=1;rounded=0;exitX=0.75;exitY=1;exitDx=0;exitDy=0;entryX=0.25;entryY=0;entryDx=0;entryDy=0;" edge="1" parent="1" source="35" target="38"><mxGeometry relative="1" as="geometry"><mxPoint x="370" y="380" as="sourcePoint"/><mxPoint x="530" y="380" as="targetPoint"/><Array as="points"><mxPoint x="450" y="390"/><mxPoint x="505" y="390"/></Array></mxGeometry></mxCell><mxCell id="49" value="1" style="resizable=0;html=1;align=right;verticalAlign=bottom;" connectable="0" vertex="1" parent="48"><mxGeometry x="1" relative="1" as="geometry"/></mxCell><mxCell id="50" value="contains" style="endArrow=none;html=1;rounded=0;entryX=0.75;entryY=0;entryDx=0;entryDy=0;exitX=0.25;exitY=1;exitDx=0;exitDy=0;" edge="1" parent="1" source="35" target="37"><mxGeometry relative="1" as="geometry"><mxPoint x="380" y="420" as="sourcePoint"/><mxPoint x="530" y="380" as="targetPoint"/><Array as="points"><mxPoint x="400" y="390"/><mxPoint x="325" y="390"/></Array></mxGeometry></mxCell><mxCell id="51" value="N" style="resizable=0;html=1;align=right;verticalAlign=bottom;" connectable="0" vertex="1" parent="50"><mxGeometry x="1" relative="1" as="geometry"/></mxCell><mxCell id="52" value="are correct" style="endArrow=none;html=1;rounded=0;exitX=0.5;exitY=1;exitDx=0;exitDy=0;entryX=1;entryY=0.5;entryDx=0;entryDy=0;" edge="1" parent="1" source="35" target="37"><mxGeometry relative="1" as="geometry"><mxPoint x="410" y="440" as="sourcePoint"/><mxPoint x="430" y="550" as="targetPoint"/><Array as="points"><mxPoint x="425" y="470"/></Array></mxGeometry></mxCell><mxCell id="53" value="N" style="resizable=0;html=1;align=right;verticalAlign=bottom;" connectable="0" vertex="1" parent="52"><mxGeometry x="1" relative="1" as="geometry"/></mxCell><mxCell id="54" value="contains" style="endArrow=none;html=1;rounded=0;exitX=0.5;exitY=1;exitDx=0;exitDy=0;entryX=0.5;entryY=0;entryDx=0;entryDy=0;" edge="1" parent="1" source="30" target="35"><mxGeometry relative="1" as="geometry"><mxPoint x="410" y="259.5" as="sourcePoint"/><mxPoint x="570" y="259.5" as="targetPoint"/></mxGeometry></mxCell><mxCell id="55" value="N" style="resizable=0;html=1;align=right;verticalAlign=bottom;" connectable="0" vertex="1" parent="54"><mxGeometry x="1" relative="1" as="geometry"/></mxCell><mxCell id="56" value="" style="endArrow=none;html=1;rounded=0;exitX=0.5;exitY=1;exitDx=0;exitDy=0;entryX=0;entryY=0.5;entryDx=0;entryDy=0;" edge="1" parent="1" source="36" target="35"><mxGeometry relative="1" as="geometry"><mxPoint x="280" y="280" as="sourcePoint"/><mxPoint x="440" y="280" as="targetPoint"/><Array as="points"><mxPoint x="300" y="330"/></Array></mxGeometry></mxCell><mxCell id="57" value="" style="endArrow=none;html=1;rounded=0;entryX=0.5;entryY=1;entryDx=0;entryDy=0;exitX=0;exitY=0.5;exitDx=0;exitDy=0;" edge="1" parent="1" source="30" target="31"><mxGeometry relative="1" as="geometry"><mxPoint x="150" y="150" as="sourcePoint"/><mxPoint x="310" y="150" as="targetPoint"/><Array as="points"><mxPoint x="300" y="160"/></Array></mxGeometry></mxCell><mxCell id="58" value="" style="endArrow=none;html=1;rounded=0;entryX=0.5;entryY=1;entryDx=0;entryDy=0;exitX=0.5;exitY=0;exitDx=0;exitDy=0;" edge="1" parent="1" source="30" target="32"><mxGeometry relative="1" as="geometry"><mxPoint x="280" y="280" as="sourcePoint"/><mxPoint x="440" y="280" as="targetPoint"/></mxGeometry></mxCell><mxCell id="59" value="" style="endArrow=none;html=1;rounded=0;entryX=0;entryY=0.5;entryDx=0;entryDy=0;exitX=1;exitY=0.5;exitDx=0;exitDy=0;" edge="1" parent="1" source="30" target="34"><mxGeometry relative="1" as="geometry"><mxPoint x="280" y="280" as="sourcePoint"/><mxPoint x="440" y="280" as="targetPoint"/></mxGeometry></mxCell><mxCell id="60" value="" style="endArrow=none;html=1;rounded=0;exitX=0.5;exitY=1;exitDx=0;exitDy=0;entryX=1;entryY=0.25;entryDx=0;entryDy=0;" edge="1" parent="1" source="33" target="30"><mxGeometry relative="1" as="geometry"><mxPoint x="500" y="240" as="sourcePoint"/><mxPoint x="660" y="240" as="targetPoint"/><Array as="points"><mxPoint x="540" y="150"/></Array></mxGeometry></mxCell></root></mxGraphModel></diagram></mxfile>